<svg xmlns="http://www.w3.org/2000/svg" width="788" height="317" viewBox="0 0 788 317" version="1.1"><path d="M 182.299 2.960 C 176.143 6.713, 176 7.608, 176.004 42.200 C 176.007 71.830, 176.115 73.677, 178.026 76.810 C 179.993 80.037, 185.118 83, 188.733 83 C 191.996 83, 197.315 79.402, 199.173 75.938 C 200.827 72.853, 201 69.665, 201 42.167 C 201 8.423, 200.741 6.857, 194.526 3.016 C 190.418 0.477, 186.400 0.459, 182.299 2.960 M 91.244 46.491 C 90.004 47.388, 88.316 49.422, 87.494 51.011 C 84.571 56.664, 85.473 59.694, 94.496 74.530 C 99.168 82.214, 104.124 89.703, 105.508 91.173 C 110.401 96.370, 118.010 96.031, 122.958 90.395 C 128.321 84.287, 127.570 81.148, 116.521 63.457 C 111.307 55.109, 106.330 47.689, 105.460 46.967 C 102.935 44.871, 93.905 44.569, 91.244 46.491 M 276.500 47.373 C 274.850 48.127, 272.554 49.815, 271.398 51.123 C 267.997 54.969, 253.373 79.250, 252.627 82.290 C 252.174 84.136, 252.583 86.529, 253.836 89.362 C 257.198 96.962, 266.461 99.127, 272.414 93.705 C 275.338 91.042, 291.834 64.497, 292.697 61.064 C 293.549 57.679, 290.997 51.045, 288 48.852 C 284.541 46.322, 280.058 45.745, 276.500 47.373 M 273.500 209.412 C 260.310 215.274, 259.555 235.734, 272.302 241.904 C 285.493 248.290, 298.908 239.023, 297.754 224.322 C 296.837 212.647, 283.990 204.749, 273.500 209.412 M 110.500 217.954 C 102.901 221.097, 100.103 233.969, 105.661 240.211 C 107.960 242.792, 113.064 245.001, 116.718 244.996 C 126.139 244.984, 132.289 231.907, 126.974 223.190 C 123.879 218.112, 116.097 215.639, 110.500 217.954" stroke="none" fill="#fb8586" fill-rule="evenodd"/><path d="M 173.500 95.569 C 156.443 97.891, 143.600 101.655, 131 108.024 C 105.546 120.892, 86.169 142.900, 77.613 168.658 L 75.913 173.777 68.831 176.054 C 54.590 180.634, 41.518 191.584, 34.875 204.501 C 32.376 209.361, 30.851 211.203, 29 211.601 C 14.277 214.767, 7.480 222.417, 7.624 235.657 C 7.745 246.837, 12.710 253.870, 23.060 257.521 C 25.365 258.334, 28.432 259.012, 29.876 259.026 C 32.029 259.047, 33.308 260.327, 37 266.156 C 45.627 279.777, 59.338 289.207, 75.208 292.433 C 84.782 294.379, 88.742 294.394, 98.662 292.518 C 126.717 287.214, 147 262.435, 147 233.465 L 147 226.250 150.125 225.625 C 155.328 224.584, 162.694 224.922, 163.748 226.250 C 164.294 226.938, 164.988 231.325, 165.292 236 C 167.163 264.847, 189.895 292.742, 219.805 302.895 C 233.118 307.414, 253.020 308.083, 267.177 304.486 C 276.031 302.237, 290.393 295.043, 297.500 289.297 C 300.800 286.628, 306.413 280.805, 309.974 276.357 C 316.209 268.567, 316.560 268.300, 319.474 269.137 C 323.336 270.246, 331.946 268.689, 337.909 265.802 C 344.001 262.853, 350.591 256.076, 353.553 249.713 C 357.008 242.293, 357.041 228.777, 353.622 221.435 C 348.875 211.241, 339.817 204.075, 328.953 201.920 C 323.528 200.844, 323.368 200.714, 321.712 196.053 C 319.145 188.823, 310.489 176.236, 303.303 169.283 C 263.792 131.050, 197.886 141.576, 173.492 190.016 C 171.687 193.600, 168.985 200.462, 167.487 205.266 L 164.764 214 158.132 214.011 C 154.484 214.017, 149.864 214.293, 147.865 214.623 C 144.354 215.204, 144.186 215.092, 142.962 211.362 C 137.989 196.201, 119.526 179.511, 102.750 175.014 C 100.137 174.313, 98 173.224, 98 172.592 C 98 170.319, 106.026 155.814, 110.507 149.992 C 129.753 124.979, 167.828 111.353, 201.140 117.557 C 211.243 119.439, 225.477 126.022, 232.153 131.902 L 236.807 136 246.153 136.024 C 254.831 136.046, 259.068 136.590, 264.750 138.413 C 268.482 139.610, 267.429 137.032, 261.237 129.806 C 242.771 108.261, 218.112 96.635, 188.667 95.592 C 181.975 95.355, 175.150 95.344, 173.500 95.569 M 232.675 164.560 C 210.771 169.474, 193.480 184.460, 185.406 205.526 C 183.362 210.861, 182.616 214.909, 182.236 222.746 C 181.605 235.742, 183.025 243.172, 188.212 254 C 191.410 260.677, 193.915 264.127, 199.892 270.085 C 213.289 283.441, 227.606 289.425, 246 289.356 C 265.120 289.284, 278.158 283.905, 291.594 270.547 C 304.223 257.990, 310.339 243.376, 310.235 226 C 310.170 215.051, 308.841 209.456, 303.822 199 C 300.529 192.139, 298.176 188.957, 291.621 182.496 C 286.937 177.879, 280.957 173.148, 277.493 171.316 C 264.356 164.374, 245.905 161.592, 232.675 164.560 M 474.667 178.667 C 474.300 179.033, 474 198.383, 474 221.667 L 474 264 480 264 L 486 264 486 221 L 486 178 480.667 178 C 477.733 178, 475.033 178.300, 474.667 178.667 M 434 181.374 C 430.975 182.052, 427.050 183.375, 425.277 184.315 C 420.231 186.990, 413.906 193.978, 411.080 200 C 408.517 205.463, 408.498 205.695, 408.194 234.750 L 407.889 264 413.944 264 L 420 264 420 246 L 420 228 438.500 228 L 457 228 457 222 L 457 216 438.386 216 L 419.773 216 420.474 211.250 C 421.316 205.548, 424.067 200.786, 428.345 197.626 C 433.289 193.974, 434.546 193.723, 451 193.093 L 466.500 192.500 466.500 186.500 L 466.500 180.500 453 180.320 C 445.234 180.217, 437.164 180.664, 434 181.374 M 78.317 191.046 C 62.299 194.212, 48.027 209.445, 44.795 226.826 C 41.104 246.675, 53.831 267.190, 74.083 274.035 C 79.320 275.805, 82.180 276.132, 89.635 275.811 C 97.740 275.462, 99.621 274.997, 106.307 271.693 C 115.278 267.259, 121.438 260.919, 126.229 251.186 C 129.352 244.842, 129.500 244.022, 129.491 233.021 C 129.483 222.322, 129.275 221.083, 126.577 215.651 C 117.630 197.636, 97.332 187.287, 78.317 191.046 M 513.222 206.047 C 506.653 209.329, 502.327 213.587, 498.763 220.278 C 496.913 223.752, 496.513 226.095, 496.507 233.500 C 496.501 241.615, 496.792 243.027, 499.468 247.859 C 509.215 265.456, 531.691 269.361, 546.312 255.998 C 553.678 249.266, 556.462 242.928, 556.414 233 C 556.384 226.841, 555.891 224.555, 553.655 220.216 C 547.936 209.118, 537.973 203, 525.622 203 C 520.598 203, 518.082 203.618, 513.222 206.047 M 565.394 204.416 C 565.074 205.251, 564.966 214.386, 565.156 224.717 C 565.490 242.950, 565.582 243.668, 568.314 249.230 C 571.627 255.978, 576.547 260.357, 583.357 262.618 C 592.048 265.505, 603.307 263.137, 609.723 257.073 L 611.946 254.972 616.325 258.315 C 627.185 266.604, 642.528 265.528, 651.638 255.838 C 658.177 248.882, 658.468 247.604, 658.821 224.250 L 659.142 203 653.148 203 L 647.153 203 646.826 222.250 C 646.522 240.190, 646.346 241.747, 644.241 245.132 C 641.613 249.359, 637.240 251.474, 631.598 251.249 C 626.941 251.064, 623.299 248.655, 620.534 243.933 C 618.815 240.998, 618.517 238.208, 618.163 221.787 L 617.759 203 611.880 203 L 606 203 606 220.375 C 606 229.931, 605.716 239.172, 605.368 240.911 C 603.944 248.030, 595.651 252.831, 588.250 250.820 C 579.116 248.339, 577.671 244.411, 577.462 221.500 L 577.298 203.500 571.637 203.200 C 567.302 202.970, 565.839 203.255, 565.394 204.416 M 671 233.608 L 671 264.216 682.250 263.836 C 692.444 263.492, 694.003 263.179, 698.859 260.510 C 705.524 256.846, 710.380 251.273, 712.992 244.292 C 714.729 239.649, 715 236.500, 715 220.962 L 715 203 709 203 L 703 203 703 220.184 C 703 235.652, 702.788 237.806, 700.879 241.750 C 698.379 246.915, 693.214 250.642, 687.250 251.584 L 683 252.256 683 227.628 L 683 203 677 203 L 671 203 671 233.608 M 741.460 205.859 C 718.084 216.918, 717.978 249.209, 741.278 261.152 C 744.007 262.551, 748.064 263.484, 752.750 263.790 L 760 264.263 760 257.865 L 760 251.467 754.062 251.467 C 749.080 251.467, 747.448 250.987, 743.916 248.483 C 737.837 244.175, 735.800 239.903, 736.230 232.370 C 736.653 224.955, 740.045 219.792, 746.384 216.913 C 755.505 212.771, 765.883 216.418, 770.821 225.500 C 772.107 227.865, 772.531 232.254, 772.823 246.250 L 773.194 264 778.597 264 L 784 264 783.990 244.750 C 783.981 226.682, 783.837 225.192, 781.643 220.480 C 778.726 214.215, 770.545 206.715, 764.316 204.592 C 756.842 202.045, 748.549 202.505, 741.460 205.859 M 520.791 215.933 C 513.301 218.345, 508.044 225.589, 508.044 233.500 C 508.044 249.777, 527.534 257.701, 539.106 246.129 C 547.668 237.567, 546.330 224.720, 536.184 218.069 C 532.484 215.643, 524.941 214.596, 520.791 215.933 M 326.984 229.250 C 326.976 234.338, 326.317 241.200, 325.520 244.500 C 324.723 247.800, 324.055 250.838, 324.036 251.250 C 323.975 252.529, 326.192 252.086, 330.647 249.929 C 337.641 246.543, 341.093 238.772, 339.021 231.077 C 337.771 226.435, 331.930 220, 328.967 220 C 327.154 220, 326.999 220.724, 326.984 229.250 M 24.190 225.026 C 20.045 227.553, 17.600 233.053, 18.496 237.833 C 19.216 241.669, 24.136 247, 26.956 247 C 28.504 247, 28.604 246.405, 27.843 241.750 C 27.371 238.863, 27.271 233.463, 27.621 229.750 C 27.972 226.037, 28.088 223.002, 27.879 223.004 C 27.671 223.006, 26.010 223.916, 24.190 225.026" stroke="none" fill="#8e17f8" fill-rule="evenodd"/></svg>